<svg width="184" height="64" viewBox="0 0 184 64" fill="none" xmlns="http://www.w3.org/2000/svg">
<g clip-path="url(#clip0_104_31)">
<path d="M30.7071 61.414C20.2027 61.414 11.6569 49.7254 11.6569 39.2211V19.0502C11.6569 8.54588 20.2027 0 30.7071 0C41.2115 0 49.7573 8.54588 49.7573 19.0502V39.2211C49.7573 49.7254 41.2113 61.414 30.7071 61.414ZM30.7071 8.62002C24.956 8.62002 20.2769 13.299 20.2769 19.0502V39.2211C20.2769 44.9723 24.956 49.6513 30.7071 49.6513C36.4582 49.6513 41.1373 44.9723 41.1373 39.2211V19.0502C41.1373 13.299 36.4582 8.62002 30.7071 8.62002Z" fill="#6DA8D6"/>
<path d="M30.7071 0V8.62002C36.4582 8.62002 41.1373 13.299 41.1373 19.0502V39.2211C41.1373 44.9723 36.4582 49.6513 30.7071 49.6513V61.414C41.2114 61.414 49.7573 49.7254 49.7573 39.2211V19.0502C49.7573 8.54588 41.2113 0 30.7071 0Z" fill="#2974A8"/>
<path d="M53.9811 25.7491H7.43304V64H53.9811V25.7491Z" fill="#F9E375"/>
<path d="M53.9811 25.7491H30.7071V64H53.9811V25.7491Z" fill="#F5D361"/>
<path d="M56.5671 32.9679H47.9471V39.8639H56.5671V32.9679Z" fill="#2974A8"/>
<path d="M56.5671 43.312H47.9471V50.208H56.5671V43.312Z" fill="#6DA8D6"/>
<path d="M56.5671 53.656H47.9471V60.552H56.5671V53.656Z" fill="#2974A8"/>
</g>
<path d="M73.368 49V26.28H77.784V45.128H89.368V49H73.368ZM99.2585 49.32C97.8932 49.32 96.6665 49.096 95.5785 48.648C94.4905 48.1787 93.5625 47.5387 92.7945 46.728C92.0478 45.9173 91.4718 44.9893 91.0665 43.944C90.6612 42.8987 90.4585 41.8 90.4585 40.648C90.4585 39.4747 90.6612 38.3653 91.0665 37.32C91.4718 36.2747 92.0478 35.3467 92.7945 34.536C93.5625 33.7253 94.4905 33.096 95.5785 32.648C96.6665 32.1787 97.8932 31.944 99.2585 31.944C100.624 31.944 101.84 32.1787 102.907 32.648C103.995 33.096 104.923 33.7253 105.691 34.536C106.459 35.3467 107.035 36.2747 107.419 37.32C107.824 38.3653 108.027 39.4747 108.027 40.648C108.027 41.8 107.824 42.8987 107.419 43.944C107.035 44.9893 106.459 45.9173 105.691 46.728C104.944 47.5387 104.027 48.1787 102.939 48.648C101.851 49.096 100.624 49.32 99.2585 49.32ZM94.8745 40.648C94.8745 41.6293 95.0665 42.504 95.4505 43.272C95.8345 44.0187 96.3572 44.6053 97.0185 45.032C97.6798 45.4587 98.4265 45.672 99.2585 45.672C100.069 45.672 100.805 45.4587 101.467 45.032C102.128 44.584 102.651 43.9867 103.035 43.24C103.44 42.472 103.643 41.5973 103.643 40.616C103.643 39.656 103.44 38.792 103.035 38.024C102.651 37.256 102.128 36.6587 101.467 36.232C100.805 35.8053 100.069 35.592 99.2585 35.592C98.4265 35.592 97.6798 35.816 97.0185 36.264C96.3572 36.6907 95.8345 37.288 95.4505 38.056C95.0665 38.8027 94.8745 39.6667 94.8745 40.648ZM118.729 49.32C117.363 49.32 116.137 49.096 115.049 48.648C113.961 48.1787 113.033 47.5387 112.265 46.728C111.497 45.896 110.899 44.9573 110.473 43.912C110.067 42.8667 109.865 41.768 109.865 40.616C109.865 39.0373 110.217 37.5973 110.921 36.296C111.646 34.9733 112.67 33.9173 113.993 33.128C115.315 32.3387 116.883 31.944 118.697 31.944C120.51 31.944 122.067 32.3387 123.369 33.128C124.67 33.9173 125.641 34.952 126.281 36.232L122.089 37.512C121.726 36.8933 121.246 36.424 120.649 36.104C120.051 35.7627 119.39 35.592 118.665 35.592C117.854 35.592 117.107 35.8053 116.425 36.232C115.763 36.6373 115.241 37.224 114.857 37.992C114.473 38.7387 114.281 39.6133 114.281 40.616C114.281 41.5973 114.473 42.472 114.857 43.24C115.262 43.9867 115.795 44.584 116.457 45.032C117.118 45.4587 117.854 45.672 118.665 45.672C119.177 45.672 119.657 45.5867 120.105 45.416C120.574 45.2453 120.99 45.0107 121.353 44.712C121.715 44.4133 121.982 44.072 122.153 43.688L126.345 44.968C125.961 45.8 125.395 46.5467 124.649 47.208C123.923 47.8693 123.059 48.392 122.057 48.776C121.075 49.1387 119.966 49.32 118.729 49.32ZM140.439 49L135.543 41.768L133.271 44.008V49H128.983V25.64H133.271V39.784L140.023 32.264H144.567L138.327 39.368L145.015 49H140.439ZM153.728 49.32C152.384 49.32 151.168 49.096 150.08 48.648C148.992 48.1787 148.064 47.5493 147.296 46.76C146.528 45.9493 145.931 45.032 145.504 44.008C145.099 42.9627 144.896 41.864 144.896 40.712C144.896 39.112 145.248 37.6507 145.952 36.328C146.677 35.0053 147.701 33.9493 149.024 33.16C150.368 32.3493 151.947 31.944 153.76 31.944C155.595 31.944 157.163 32.3493 158.464 33.16C159.765 33.9493 160.757 35.0053 161.44 36.328C162.144 37.6293 162.496 39.0373 162.496 40.552C162.496 40.808 162.485 41.0747 162.464 41.352C162.443 41.608 162.421 41.8213 162.4 41.992H149.44C149.525 42.8453 149.771 43.592 150.176 44.232C150.603 44.872 151.136 45.3627 151.776 45.704C152.437 46.024 153.141 46.184 153.888 46.184C154.741 46.184 155.541 45.9813 156.288 45.576C157.056 45.1493 157.579 44.5947 157.856 43.912L161.536 44.936C161.131 45.7893 160.544 46.5467 159.776 47.208C159.029 47.8693 158.144 48.392 157.12 48.776C156.096 49.1387 154.965 49.32 153.728 49.32ZM149.344 39.272H158.112C158.027 38.4187 157.781 37.6827 157.376 37.064C156.992 36.424 156.48 35.9333 155.84 35.592C155.2 35.2293 154.485 35.048 153.696 35.048C152.928 35.048 152.224 35.2293 151.584 35.592C150.965 35.9333 150.453 36.424 150.048 37.064C149.664 37.6827 149.429 38.4187 149.344 39.272ZM164.084 40.616C164.084 38.9947 164.404 37.5333 165.044 36.232C165.684 34.9093 166.57 33.864 167.7 33.096C168.831 32.328 170.122 31.944 171.572 31.944C172.81 31.944 173.919 32.2533 174.9 32.872C175.903 33.4693 176.682 34.2373 177.236 35.176V25.64H181.524V44.2C181.524 44.648 181.599 44.968 181.748 45.16C181.898 45.352 182.154 45.4693 182.516 45.512V49C181.77 49.1493 181.162 49.224 180.692 49.224C179.924 49.224 179.284 49.032 178.772 48.648C178.282 48.264 178.004 47.7627 177.94 47.144L177.876 46.088C177.258 47.1333 176.415 47.9333 175.348 48.488C174.303 49.0427 173.204 49.32 172.052 49.32C170.9 49.32 169.834 49.096 168.852 48.648C167.892 48.2 167.05 47.5813 166.324 46.792C165.62 46.0027 165.066 45.0853 164.66 44.04C164.276 42.9733 164.084 41.832 164.084 40.616ZM177.236 42.856V38.856C177.023 38.2373 176.682 37.6827 176.212 37.192C175.743 36.7013 175.22 36.3173 174.644 36.04C174.068 35.7413 173.492 35.592 172.916 35.592C172.255 35.592 171.658 35.7307 171.124 36.008C170.591 36.2853 170.122 36.6587 169.716 37.128C169.332 37.5973 169.034 38.1413 168.82 38.76C168.628 39.3787 168.532 40.0293 168.532 40.712C168.532 41.3947 168.639 42.0453 168.852 42.664C169.087 43.2613 169.418 43.784 169.844 44.232C170.271 44.68 170.762 45.032 171.316 45.288C171.892 45.544 172.511 45.672 173.172 45.672C173.578 45.672 173.983 45.608 174.388 45.48C174.815 45.3307 175.21 45.1387 175.572 44.904C175.956 44.648 176.287 44.3493 176.564 44.008C176.863 43.6453 177.087 43.2613 177.236 42.856Z" fill="black"/>
<defs>
<clipPath id="clip0_104_31">
<rect width="64" height="64" fill="white"/>
</clipPath>
</defs>
</svg>
